<?xml version="1.0" encoding="UTF-8" standalone="no"?>
<!-- Creator: CorelDRAW -->

<svg
   xmlns:dc="http://purl.org/dc/elements/1.1/"
   xmlns:cc="http://creativecommons.org/ns#"
   xmlns:rdf="http://www.w3.org/1999/02/22-rdf-syntax-ns#"
   xmlns:svg="http://www.w3.org/2000/svg"
   xmlns="http://www.w3.org/2000/svg"
   xmlns:sodipodi="http://sodipodi.sourceforge.net/DTD/sodipodi-0.dtd"
   xmlns:inkscape="http://www.inkscape.org/namespaces/inkscape"
   xml:space="preserve"
   width="1000"
   height="123.03319"
   style="clip-rule:evenodd;fill-rule:evenodd;image-rendering:optimizeQuality;shape-rendering:geometricPrecision;text-rendering:geometricPrecision"
   viewBox="0 0 264.58332 32.55253"
   id="svg2"
   version="1.1"
   inkscape:version="0.92.3 (2405546, 2018-03-11)"
   sodipodi:docname="Kia_Motors_logo.svg"><metadata
     id="metadata190"><rdf:RDF><cc:Work
         rdf:about=""><dc:format>image/svg+xml</dc:format><dc:type
           rdf:resource="http://purl.org/dc/dcmitype/StillImage" /><dc:title></dc:title></cc:Work></rdf:RDF></metadata><sodipodi:namedview
     pagecolor="#ffffff"
     bordercolor="#666666"
     borderopacity="1"
     objecttolerance="10"
     gridtolerance="10"
     guidetolerance="10"
     inkscape:pageopacity="0"
     inkscape:pageshadow="2"
     inkscape:window-width="1280"
     inkscape:window-height="705"
     id="namedview188"
     showgrid="false"
     fit-margin-top="0"
     fit-margin-left="0"
     fit-margin-right="0"
     fit-margin-bottom="0"
     inkscape:zoom="0.70710678"
     inkscape:cx="237.22006"
     inkscape:cy="224.60842"
     inkscape:window-x="-8"
     inkscape:window-y="-8"
     inkscape:window-maximized="1"
     inkscape:current-layer="svg2"
     units="px" /><defs
     id="defs4"><style
       type="text/css"
       id="style6"><![CDATA[
    .fil0 {fill:#1F1A17}
    .fil2 {fill:#605D5C}
    .fil1 {fill:#9E292B}
   ]]></style></defs><path
     style="fill:#9e292b;stroke-width:2.53767514"
     inkscape:connector-curvature="0"
     id="path170"
     d="M 55.2495,21.06422 H 51.538657 L 55.2495,10.76177 58.955266,21.06422 Z m 0,-19.70606 H 51.902814 L 41.231636,31.1964 h 6.691849 l 2.075565,-5.78844 h 5.25045 5.24106 l 2.08064,5.78844 h 8.139846 L 60.033778,1.35816 Z"
     class="fil1" /><polygon
     style="fill:#9e292b"
     id="polygon172"
     points="41.8528,248.461 44.4196,241.085 45.3813,248.461 48.3379,248.461 46.6989,236.702 43.35,236.702 40.9267,243.508 38.5035,236.702 35.1194,236.702 33.5154,248.461 36.1505,248.461 37.1132,241.119 39.6098,248.461 "
     class="fil1"
     transform="matrix(2.537675,0,0,2.537675,-0.05532132,-599.31612)" /><polygon
     style="fill:#9e292b"
     id="polygon174"
     points="15.2359,248.461 15.2359,236.702 12.0285,236.702 12.0285,248.461 "
     class="fil1"
     transform="matrix(2.537675,0,0,2.537675,-0.05532132,-599.31612)" /><path
     style="fill:#9e292b;stroke-width:2.53767514"
     inkscape:connector-curvature="0"
     id="path176"
     d="M 23.958951,26.49485 15.552141,14.46754 25.769582,1.35664 H 17.362265 L 8.1362937,12.92844 V 1.35664 H 0 V 31.19487 H 8.1362937 V 17.35998 l 7.9584023,11.30331 c 0,0 1.992329,2.53158 4.067893,2.53158 h 8.591299 c 0,0 -0.909756,0.0941 -4.794937,-4.70002 z"
     class="fil1" /><path
     style="fill:#9e292b;stroke-width:2.53767514"
     inkscape:connector-curvature="0"
     id="path178"
     d="M 238.62139,26.94401 231.8392,16.72759 c 6.42235,-2.0814 6.06073,-8.04722 6.06073,-8.04722 0,-7.04738 -8.22917,-7.32297 -8.22917,-7.32297 2.5e-4,-2.5e-4 -4.25061,0 -6.86898,0 l -8.6857,-2.5e-4 v 29.83823 h 8.22739 V 5.69378 h 2.89701 c 0,0 4.69978,0.27305 4.69978,4.16382 0,0 0.63112,6.23785 -7.04992,6.23785 l 8.59079,12.92997 c 0,0 1.44394,2.16996 4.61045,2.16996 h 6.32846 0.62756 c 0,0 -0.2695,0 -0.62782,-0.27026 -0.72247,-0.45196 -1.90224,-1.53707 -3.79839,-3.98111 z"
     class="fil1" /><path
     style="fill:#9e292b;stroke-width:2.53767514"
     inkscape:connector-curvature="0"
     id="path180"
     d="m 264.57089,22.15288 c -0.3606,-5.78488 -6.59897,-7.77239 -6.59897,-7.77239 -8.5852,-2.98557 -7.86628,-6.24065 -7.86628,-6.24065 0,-3.43601 5.42149,-3.61492 5.42149,-3.61492 3.89431,0 6.14752,1.98827 6.14752,1.98827 l 2.5e-4,-4.52467 c 0,0 -3.25355,-1.89767 -8.67758,-1.53326 0,-2.6e-4 -8.31951,0.54154 -10.5783,6.1465 -0.45272,0.90417 -0.6329,1.99283 -0.6329,3.16296 2.6e-4,0 -0.18245,1.45028 0.6329,3.25761 0.71816,1.71521 2.44048,3.79687 6.05997,5.42783 0,0 8.40529,2.61508 8.22536,6.0554 -0.17535,4.61147 -6.14675,3.61771 -6.14675,3.61771 -3.5261,-0.54154 -7.14026,-2.1692 -8.13858,-2.6204 -0.26925,-0.0939 -0.36238,-0.1817 -0.36238,-0.1817 l 0.36263,1.17621 0.90139,3.43069 c 3.71084,2.2631 8.77426,2.44581 8.77426,2.44581 11.66519,0.55245 12.47293,-7.62698 12.48841,-9.73249 v -0.12816 c -0.002,-0.23067 -0.0127,-0.36035 -0.0127,-0.36035 z"
     class="fil1" /><path
     style="fill:#9e292b;stroke-width:2.53767514"
     inkscape:connector-curvature="0"
     id="path182"
     d="m 195.22055,27.84996 c -4.8835,0 -8.77427,-5.153 -8.77427,-11.57535 0,-6.41524 3.89051,-11.57103 8.77402,-11.57103 4.8802,0 8.77071,5.15579 8.77071,11.57103 0,6.42235 -3.89077,11.57535 -8.77046,11.57535 z m 0,-27.84996 c -7.23542,0 -13.38294,4.34729 -15.82444,10.49125 -0.72044,1.80936 -1.08231,3.70552 -1.08231,5.78336 2.5e-4,2.0875 0.36187,3.98009 1.08231,5.78666 2.4415,6.15564 8.58902,10.49126 15.82419,10.49126 9.31072,0 16.90472,-7.23161 16.90472,-16.27792 C 212.12527,7.23262 204.53077,0 195.22055,0 Z"
     class="fil1" /><polygon
     style="fill:#9e292b"
     id="polygon184"
     points="67.7576,248.461 67.7576,238.411 70.715,238.411 71.1429,238.411 71.1429,236.702 70.715,236.702 61.5202,236.702 61.2009,236.702 61.2009,238.411 61.5202,238.411 64.5505,238.411 64.5505,248.461 "
     class="fil1"
     transform="matrix(2.537675,0,0,2.537675,-0.05532132,-599.31612)" /><path
     style="fill:#9e292b;stroke-width:2.53767514"
     inkscape:connector-curvature="0"
     id="path186"
     d="m 139.88147,27.84996 c -4.8835,0 -8.86029,-5.153 -8.86029,-11.57535 2.5e-4,-6.41524 3.97679,-11.57103 8.86029,-11.57103 4.79316,0 8.77223,5.15579 8.77223,11.57103 0,6.42235 -3.97907,11.57535 -8.77223,11.57535 z m 0,-27.84996 c -9.40006,0 -16.99786,7.23262 -16.99786,16.27461 0,9.04631 7.5978,16.27792 16.99786,16.27792 7.59425,0 14.01659,-4.78935 16.18123,-11.48755 0.45932,-1.53098 0.72882,-3.06881 0.72882,-4.79037 0,-1.62665 -0.2695,-3.25253 -0.72882,-4.79138 C 153.89806,4.79138 147.47572,0 139.88147,0 Z"
     class="fil1" /></svg>