<?xml version="1.0" encoding="UTF-8" standalone="no"?>
<!-- Created with Inkscape (http://www.inkscape.org/) -->
<svg
   xmlns:svg="http://www.w3.org/2000/svg"
   xmlns="http://www.w3.org/2000/svg"
   version="1.0"
   width="468"
   height="60"
   id="svg4148">
  <defs
     id="defs4150" />
  <g
     id="layer1">
    <g
       transform="matrix(3.3726625,0,0,3.3409875,32.16428,-211.78918)"
       id="g4122"
       style="overflow:visible">
	<path
   d="M 102.997,63.843 L 102.997,67.151 L 103.458,67.151 C 103.843,66.379 104.601,65.9 105.53,65.9 L 108.8,65.9 L 108.8,81.058 L 113.736,81.058 L 113.736,65.899 L 117.006,65.899 C 117.936,65.899 118.692,66.378 119.078,67.15 L 119.541,67.15 L 119.541,63.842 L 102.997,63.842 L 102.997,63.843 z"
   id="path4124" />

	<path
   d="M 103.544,78.983 L 98.269,78.983 L 98.269,63.843 L 92.294,63.843 L 92.294,64.306 C 92.94,64.728 93.337,65.466 93.337,66.38 L 93.337,81.058 L 106.06,81.058 L 106.06,77.75 L 105.617,77.75 C 105.229,78.522 104.474,78.983 103.544,78.983 z"
   id="path4126" />

	<path
   d="M 86.059,64.306 C 86.707,64.728 87.085,65.466 87.085,66.38 L 87.085,72.989 C 87.085,76.323 85.939,78.144 82.907,78.144 C 79.871,78.144 78.744,76.323 78.744,72.989 L 78.744,63.843 L 72.767,63.843 L 72.767,64.306 C 73.415,64.728 73.812,65.466 73.812,66.38 L 73.812,73.881 C 73.812,78.066 76.426,81.398 81.552,81.398 C 87.22,81.398 89.568,78.845 89.568,73.248 L 89.568,63.844 L 86.058,63.844 L 86.058,64.306 L 86.059,64.306 z"
   id="path4128" />

	<path
   d="M 72.117,79.31 L 65.489,63.843 L 61.654,63.843 L 54.17,81.058 L 57.064,81.058 L 58.675,77.118 L 65.937,77.118 L 67.46,81.058 L 73.402,81.058 L 73.402,80.593 C 72.86,80.384 72.37,79.9 72.117,79.31 z M 59.529,75.045 L 62.389,68.351 L 65.114,75.045 L 59.529,75.045 z"
   id="path4130" />

	<path
   d="M 49.151,64.306 C 49.802,64.728 50.179,65.466 50.179,66.38 L 50.179,76.534 L 42.387,63.843 L 35.741,63.843 L 35.741,64.306 C 36.39,64.728 36.785,65.466 36.785,66.38 L 36.785,81.058 L 39.252,81.058 L 39.252,68.383 L 47.061,81.058 L 52.663,81.058 L 52.663,63.843 L 49.151,63.843 L 49.151,64.306 L 49.151,64.306 z"
   id="path4132" />

	<path
   d="M 31.151,78.983 L 25.364,78.983 L 25.364,73.212 L 31.906,73.212 L 31.906,71.14 L 25.364,71.14 L 25.364,65.9 L 30.946,65.9 C 31.858,65.9 32.598,66.296 33.019,66.945 L 33.464,66.945 L 33.464,63.843 L 19.404,63.843 L 19.404,64.306 C 20.054,64.728 20.431,65.466 20.431,66.38 L 20.431,81.058 L 33.686,81.058 L 33.686,77.872 L 33.225,77.872 C 32.838,78.591 32.17,78.983 31.151,78.983 z"
   id="path4134" />

	<path
   d="M 17.161,79.548 L 12.931,73.194 C 15.035,72.528 16.682,70.765 16.682,68.503 C 16.682,65.52 14.418,63.843 10.927,63.843 L 0,63.843 L 0,64.306 C 0.649,64.728 1.045,65.466 1.045,66.38 L 1.045,81.058 L 5.977,81.058 L 5.977,73.744 L 7.826,73.744 L 11.903,81.058 L 18.479,81.058 L 18.479,80.593 C 17.953,80.401 17.494,80.05 17.161,79.548 z M 8.117,71.842 L 5.977,71.842 L 5.977,65.763 L 8.117,65.763 C 9.909,65.763 11.458,66.703 11.458,68.742 C 11.458,70.798 10.03,71.842 8.117,71.842 z"
   id="path4136" />

</g>
  </g>
</svg>
